<?xml version="1.0" standalone="no"?>
<!DOCTYPE svg PUBLIC "-//W3C//DTD SVG 20010904//EN"
 "http://www.w3.org/TR/2001/REC-SVG-20010904/DTD/svg10.dtd">
<svg version="1.0" xmlns="http://www.w3.org/2000/svg"
 width="1280.000000pt" height="853.000000pt" viewBox="0 0 1280.000000 853.000000"
 preserveAspectRatio="xMidYMid meet">

<g transform="translate(0.000000,853.000000) scale(0.100000,-0.100000)"
fill="#000000" stroke="none">
<path d="M0 4265 l0 -4265 6400 0 6400 0 0 4265 0 4265 -6400 0 -6400 0 0
-4265z m5688 2666 c64 -38 277 -160 472 -271 800 -456 860 -492 994 -591 120
-90 287 -247 391 -369 74 -88 196 -254 221 -302 l14 -27 -67 25 c-36 14 -75
30 -86 35 -33 18 -28 5 19 -51 126 -151 267 -405 349 -627 49 -134 88 -268 83
-284 -2 -5 -32 11 -68 35 -36 25 -68 46 -72 46 -4 0 5 -30 19 -67 48 -125 103
-314 125 -432 19 -97 23 -151 23 -336 0 -147 -4 -239 -13 -277 l-13 -58 -23
28 c-12 15 -40 54 -62 87 l-39 60 -3 -95 c-3 -115 -7 -131 -27 -104 -13 18
-14 18 -23 -6 -9 -24 -9 -23 -22 15 -7 22 -19 44 -26 48 -8 4 -14 15 -14 23 0
8 -4 12 -10 9 -5 -3 -10 2 -10 12 0 15 -2 16 -10 3 -6 -10 -10 62 -10 213 0
125 1 227 3 227 2 0 21 -24 42 -52 22 -29 45 -58 51 -65 6 -6 25 -34 43 -62
18 -28 38 -51 44 -51 17 0 -1 243 -29 380 -45 217 -131 452 -244 669 -28 52
-50 95 -50 97 0 7 110 -36 169 -65 35 -17 65 -31 67 -31 6 0 -6 29 -58 140
-129 276 -315 524 -527 700 -49 41 -90 79 -90 83 -1 11 59 2 163 -24 43 -11
81 -18 83 -15 8 8 -83 110 -171 194 -146 138 -313 259 -511 369 -115 64 -463
243 -473 243 -4 0 -6 -30 -4 -67 2 -38 -2 -81 -9 -98 l-12 -30 -13 43 c-37
121 -178 284 -336 386 -75 49 -185 106 -205 106 -11 0 7 -213 21 -260 8 -25
35 -90 60 -145 40 -87 46 -108 45 -165 l0 -65 -16 47 c-8 25 -31 61 -50 80
-29 28 -41 33 -81 32 -26 -1 -99 -18 -162 -39 -133 -44 -135 -39 48 -101 61
-20 112 -41 112 -45 0 -4 -10 -11 -22 -15 -13 -4 -68 -34 -123 -67 -249 -150
-424 -303 -460 -402 -49 -134 -79 -204 -112 -260 -101 -167 -295 -390 -503
-576 -69 -61 -128 -117 -132 -123 -18 -27 -3 -194 29 -321 17 -69 37 -94 108
-134 50 -28 282 -126 359 -151 l40 -13 -23 -18 c-36 -29 -120 -51 -156 -40
-58 18 -167 62 -228 92 -64 33 -187 108 -187 115 0 2 -13 50 -29 106 -37 128
-51 222 -51 331 l0 84 49 39 c194 155 394 347 476 459 106 143 199 316 245
455 18 56 33 77 103 148 83 85 237 208 323 258 l47 28 -29 12 c-16 7 -85 34
-154 59 -68 25 -126 48 -129 50 -5 6 38 22 139 51 144 41 314 107 337 131 30
29 29 65 -2 140 -48 119 -97 473 -66 473 7 0 65 -31 129 -69z m1002 -135 c135
-31 263 -61 285 -66 22 -5 121 -28 220 -50 99 -22 288 -65 420 -95 132 -30
389 -88 570 -129 423 -95 450 -102 509 -134 97 -53 165 -160 174 -272 4 -66
-1 -93 -142 -705 -174 -752 -218 -945 -331 -1425 -35 -151 -78 -336 -95 -410
-39 -170 -96 -408 -115 -480 -8 -30 -19 -80 -25 -110 -5 -30 -20 -87 -32 -127
-21 -68 -23 -71 -33 -46 -10 24 -10 23 -10 -15 0 -23 3 -35 7 -29 5 7 8 3 8
-11 0 -13 -4 -20 -10 -17 -6 4 -10 -7 -10 -25 0 -17 -7 -38 -15 -46 -8 -9 -20
-36 -26 -60 -7 -25 -16 -41 -20 -37 -8 8 -3 36 16 88 l8 20 -16 -20 c-9 -11
-17 -29 -17 -40 -1 -19 -1 -19 -11 -1 -10 16 -15 95 -8 121 1 6 -1 22 -5 38
-10 35 1 100 16 91 7 -4 8 -2 4 5 -4 6 -3 18 3 24 5 7 24 76 41 152 17 77 56
246 86 375 31 129 60 273 64 320 9 92 13 108 155 720 54 228 115 493 136 589
22 96 48 209 59 250 10 42 39 166 64 276 25 110 56 248 70 306 38 164 40 188
21 244 -43 127 -79 145 -455 230 -484 109 -854 193 -1040 236 -96 23 -233 54
-305 69 -71 16 -211 47 -309 70 -205 46 -234 48 -285 19 l-37 -21 -68 38 -68
37 49 49 c26 28 57 54 68 59 43 20 190 1 435 -55z m-1075 -1151 c134 -23 133
-23 94 -49 -17 -12 -55 -55 -83 -96 -28 -41 -64 -82 -81 -91 -30 -18 -378
-103 -395 -97 -4 2 14 28 42 58 28 30 88 100 134 156 118 141 129 146 289 119z
m1243 -720 c129 -59 288 -197 366 -320 139 -216 204 -505 176 -780 -19 -185
-60 -318 -143 -456 -104 -174 -282 -336 -480 -436 -101 -50 -259 -107 -342
-123 -38 -7 -74 -17 -78 -20 -5 -4 5 -37 21 -73 29 -63 30 -66 11 -72 -21 -7
-69 6 -134 36 -61 28 -306 129 -342 141 -18 6 -33 14 -33 18 0 8 75 79 196
185 43 39 108 97 144 130 36 33 80 73 99 90 l34 30 -7 -108 c-5 -85 -3 -109 7
-113 8 -3 66 15 131 40 408 158 654 440 705 810 33 236 -4 454 -114 671 -90
178 -212 306 -362 380 -29 14 -53 27 -53 30 0 8 146 -37 198 -60z m-106 -682
c112 -47 205 -88 208 -91 3 -2 -11 -18 -30 -35 -79 -70 -376 -334 -413 -367
l-40 -34 7 112 c8 130 13 125 -89 86 -343 -128 -587 -361 -687 -653 -32 -93
-33 -101 -33 -256 0 -139 3 -171 24 -239 49 -167 153 -337 270 -441 19 -16 39
-35 45 -41 52 -51 186 -123 311 -166 96 -32 84 -35 -50 -9 -182 36 -311 94
-465 212 -168 128 -283 293 -340 489 -31 106 -39 334 -16 450 71 348 286 624
626 802 99 52 217 99 310 123 36 9 68 19 72 21 4 3 -3 27 -17 54 -14 27 -25
51 -25 54 0 3 12 7 28 9 80 12 102 6 304 -80z m1226 -1621 c0 -27 3 -60 7 -73
7 -23 6 -23 -8 -4 -15 21 -28 97 -15 89 4 -3 8 4 8 15 0 12 2 21 4 21 2 0 4
-22 4 -48z m-31 -54 c-3 -7 -5 -2 -5 12 0 14 2 19 5 13 2 -7 2 -19 0 -25z
m130 10 c-3 -8 -6 -5 -6 6 -1 11 2 17 5 13 3 -3 4 -12 1 -19z m-26 -55 c-12
-20 -14 -14 -5 12 4 9 9 14 11 11 3 -2 0 -13 -6 -23z m-194 -345 c-3 -7 -5 -2
-5 12 0 14 2 19 5 13 2 -7 2 -19 0 -25z"/>
<path d="M7992 2745 c0 -16 2 -22 5 -12 2 9 2 23 0 30 -3 6 -5 -1 -5 -18z"/>
</g>
</svg>
