<?xml version="1.0" encoding="UTF-8" standalone="no"?>
<!-- Created with Inkscape (http://www.inkscape.org/) -->

<svg
   version="1.1"
   id="svg1"
   width="1365.3333"
   height="1365.3333"
   viewBox="0 0 1365.3333 1365.3333"
   sodipodi:docname="white_knight_rook.svg"
   inkscape:version="1.4.3 (0d15f75, 2025-12-25)"
   xmlns:inkscape="http://www.inkscape.org/namespaces/inkscape"
   xmlns:sodipodi="http://sodipodi.sourceforge.net/DTD/sodipodi-0.dtd"
   xmlns="http://www.w3.org/2000/svg"
   xmlns:svg="http://www.w3.org/2000/svg">
  <defs
     id="defs1" />
  <sodipodi:namedview
     id="namedview1"
     pagecolor="#ffffff"
     bordercolor="#000000"
     borderopacity="0.25"
     inkscape:showpageshadow="2"
     inkscape:pageopacity="0.0"
     inkscape:pagecheckerboard="0"
     inkscape:deskcolor="#d1d1d1"
     inkscape:zoom="0.59106449"
     inkscape:cx="683.51256"
     inkscape:cy="682.66663"
     inkscape:window-width="1920"
     inkscape:window-height="1009"
     inkscape:window-x="-8"
     inkscape:window-y="-8"
     inkscape:window-maximized="1"
     inkscape:current-layer="g1" />
  <g
     inkscape:groupmode="layer"
     inkscape:label="Image"
     id="g1">
    <path
       style="fill:#000000"
       d="m 564.40014,1193.6825 c -57.54677,-2.2375 -99.85779,-5.5135 -138,-10.685 -50.33989,-6.8253 -68.41197,-12.7362 -70.22823,-22.97 -0.28965,-1.632 -0.20679,-17.6674 0.18413,-35.634 0.67762,-31.1427 0.8506,-32.8627 3.70788,-36.8685 3.55147,-4.9789 11.09512,-10.1276 33.96164,-23.1795 l 16.94308,-9.6709 -4.28425,-2.1406 c -6.90885,-3.4519 -6.50877,-8.761 2.13872,-28.3813 3.98177,-9.0343 7.69249,-17.9259 8.24605,-19.7593 3.63521,-12.03929 9.5108,-17.33327 19.23767,-17.33327 4.8994,0 5.60524,-0.45631 8.01626,-5.18229 12.24579,-24.00374 29.62661,-86.12418 36.62843,-130.91303 3.73503,-23.89198 6.61301,-51.35397 5.56033,-53.05724 -0.40103,-0.64889 -4.06511,-1.45644 -8.14239,-1.79456 -13.66688,-1.13336 -17.93711,-6.98496 -21.66582,-29.6892 -2.43957,-14.85463 -2.76663,-15.44508 -9.96955,-17.99789 -7.54699,-2.67476 -11.81252,-15.50644 -8.38451,-25.22247 1.74005,-4.93183 1.6124,-8.73628 -1.27158,-37.89548 -4.35526,-44.03499 -5.2979,-62.0337 -3.49043,-66.64564 2.56333,-6.54061 7.69784,-7.60217 36.76975,-7.60217 18.7479,0 26.04282,0.4298 26.04282,1.53438 0,2.55338 4.08386,37.57956 4.75693,40.79895 0.55636,2.66113 1.43656,3 7.79249,3 8.51643,0 8.78073,-0.41412 8.7919,-13.77572 0.004,-5.25669 0.39333,-14.50761 0.86429,-20.55761 l 0.8563,-11 h 13.84422 c 11.95645,0 13.9658,-0.31817 14.73577,-2.33334 0.49035,-1.28333 3.48484,-6.72313 6.65441,-12.08845 7.7467,-13.11326 14.85603,-27.39844 22.38483,-44.97913 6.08778,-14.21572 15.31885,-40.15272 15.31885,-43.04213 0,-0.96944 -1.63075,-0.85958 -4.99999,0.33684 -12.71639,4.51557 -28.70549,16.72852 -39.76056,30.3703 -4.33941,5.35475 -11.52283,13.39766 -15.96317,17.87312 -16.06727,16.1944 -34.38195,18.25718 -46.6096,5.24963 -4.22378,-4.49318 -5.88811,-5.45514 -8,-4.62389 -1.46667,0.57729 -7.46667,1.08593 -13.33333,1.13031 -8.56606,0.0648 -11.97955,-0.54103 -17.33334,-3.07634 -9.34449,-4.42513 -13.93525,-9.81192 -23.99786,-28.15909 -15.27734,-27.8552 -15.96557,-29.57784 -15.98485,-40.00995 -0.0156,-8.41746 0.5971,-10.61616 6.13024,-22 3.38113,-6.95633 12.26049,-22.84787 19.73189,-35.31454 7.47141,-12.46667 18.62352,-32.90643 24.78248,-45.4217 9.8122,-19.93883 11.17913,-23.58751 11.04488,-29.48145 -0.17198,-7.55007 1.00385,-9.88951 14.46532,-28.78039 7.73257,-10.85136 10.77973,-16.47573 9.57751,-17.67796 -0.27164,-0.27163 -4.37642,3.0514 -9.12174,7.38452 -4.74533,4.33312 -9.0302,7.90058 -9.52193,7.92769 -1.65523,0.0913 -2.67162,-7.9623 -1.72221,-13.64634 1.90941,-11.43154 9.00946,-22.10887 19.9496,-30.00099 l 4,-2.88556 -3.56436,-0.0422 c -4.54569,-0.0539 -11.14227,-5.58671 -14.4941,-12.15684 -4.79458,-9.39815 -4.29964,-9.8854 10.04173,-9.8854 h 12.64674 l 19.01833,-9.61443 c 10.46008,-5.28794 21.26833,-10.50733 24.01833,-11.59863 4.86992,-1.93258 5,-2.16209 5,-8.82251 V 218.853 l -14.33334,7.68863 c -7.88333,4.22875 -15.80919,8.45446 -17.61302,9.39048 -4.31822,2.24073 -6.37687,0.37451 -12.48089,-11.31426 -7.60329,-14.55975 -10.46032,-25.65209 -10.57575,-41.05991 -0.11422,-15.24695 2.1718,-21.43782 8.77331,-23.75945 3.36531,-1.18351 4.37889,-0.5415 13.92954,8.82313 12.42661,12.18456 23.91833,21.5094 30.89235,25.06728 l 5.15924,2.63205 1.58426,-6.9637 c 3.37363,-14.82888 5.91604,-21.21896 9.71381,-24.41457 5.30682,-4.46539 8.72917,-4.05103 18.07241,2.18815 7.77923,5.19477 25.54474,22.92759 25.54474,25.49774 0,0.68405 4.28085,-1.0058 9.513,-3.75522 15.69489,-8.24742 21.27506,-19.56089 16.63904,-33.73469 -1.18362,-3.61872 -2.15204,-6.83619 -2.15204,-7.14993 0,-0.31374 2.55,-0.0771 5.66667,0.52579 3.11666,0.60293 6.11493,1.12236 6.66282,1.1543 0.54789,0.0319 3.40268,2.23222 6.34399,4.88951 11.94088,10.78787 11.87587,31.43122 -0.14209,45.11892 -5.71888,6.51344 -1.97863,6.19797 6.56265,-0.55353 5.13156,-4.05626 7.30848,-6.98475 9.45307,-12.71668 3.33668,-8.9181 3.6687,-21.84366 0.77198,-30.05383 -1.10783,-3.13993 -1.76409,-5.9591 -1.45836,-6.26483 1.20773,-1.20773 10.60042,2.34041 14.92258,5.63709 5.911,4.50853 9.91934,12.48332 10.86118,21.60881 0.6798,6.58661 1.01249,7.19579 3.55277,6.50534 11.13251,-3.02582 20.35596,-3.7147 29.01567,-2.16713 5.01146,0.8956 9.39235,2.08241 9.73532,2.63735 0.7061,1.14248 -4.93748,6.58958 -9.94826,9.6019 -1.83333,1.10214 -9.71778,4.55108 -17.52099,7.66431 -15.56391,6.20949 -29.25327,15.24628 -32.44467,21.41777 l -2.0501,3.96446 10.13713,-5.4679 c 6.03544,-3.25547 15.91821,-6.97044 24.42476,-9.18135 31.34028,-8.14555 43.55186,-18.26981 46.21052,-38.31178 0.94063,-7.09075 -2.1078,-19.39425 -5.16898,-20.8621 -0.87322,-0.41871 1.89063,-0.49729 6.14188,-0.17462 13.10414,0.9946 22.53307,8.23206 28.84076,22.13761 3.62697,7.9958 3.67943,20.26742 0.11652,27.25587 -1.45558,2.85504 -2.38987,5.44762 -2.07619,5.76129 0.31367,0.31368 4.6546,1.03704 9.6465,1.60748 4.99191,0.57043 14.09942,2.0739 20.23892,3.34103 18.081,3.73174 25.28924,1.47266 28.39686,-8.89964 1.49044,-4.97466 1.61446,-5.05818 4.1326,-2.78293 1.42782,1.29011 4.17363,5.34565 6.10181,9.01231 4.68691,8.91276 4.9515,25.03003 0.54926,33.45765 l -2.85085,5.45764 4.38235,2.0898 c 10.93883,5.21637 27.60182,24.73697 38.07162,44.60069 5.63571,10.6923 12.37072,18.48825 18.81043,21.77354 6.85619,3.49777 11.43091,3.30249 16.69503,-0.71266 2.40363,-1.83333 4.68702,-3.33333 5.0742,-3.33333 1.43942,0 4.80627,14.02879 4.77801,19.90867 -0.0702,14.59295 -12.98355,28.03932 -26.97072,28.08389 -1.28333,0.004 -2.33333,0.27218 -2.33333,0.59575 0,0.32357 3.65814,6.30554 8.12921,13.29327 5.82629,9.10579 9.85709,13.84946 14.22859,16.74502 6.7739,4.48684 14.11,5.3177 18.38735,2.08247 3.88579,-2.93908 4.31299,-2.62103 6.53649,4.86626 4.0849,13.75525 1.5816,28.28236 -6.3644,36.93446 -3.49954,3.81049 -15.02689,9.45899 -19.34084,9.47718 -3.08844,0.013 -3.08765,0.0179 1.33334,8.24673 9.44642,17.5828 20.6478,24.78761 28.6956,18.45723 l 3.7112,-2.91928 0.8755,3.11417 c 3.0773,10.94654 -0.1373,27.91664 -6.8183,35.99386 -5.2496,6.34669 -16.17705,11.78697 -23.67545,11.78697 h -5.77813 l 3.03992,4.13031 c 4.15547,5.646 12.89233,10.53636 18.82372,10.53636 3.26984,0 4.88284,0.60967 4.88284,1.84561 0,1.01508 -2.4354,6.71148 -5.41209,12.65867 -10.00275,19.98488 -24.35125,30.79013 -40.92122,30.81603 l -8.33333,0.013 v 7.13775 c 0,3.92576 -0.38548,10.82576 -0.85661,15.33333 l -0.85661,8.19559 h 14.89943 c 22.31462,0 26.81378,2.7836 26.81378,16.58949 0,3.16208 -1.85703,24.27302 -4.12675,46.9132 -3.64389,36.34745 -3.93559,42.19212 -2.49298,49.951 1.27353,6.8495 1.28185,9.85338 0.0377,13.62303 -1.89118,5.73034 -8.34838,11.58993 -12.77195,11.58993 -2.74493,0 -3.26213,0.81326 -4.02771,6.33334 -4.39098,31.66009 -8.61493,38.52714 -24.58915,39.97564 l -8.37907,0.75978 0.89963,10.7874 c 2.05409,24.63034 9.61302,68.07575 16.95973,97.47717 4.22354,16.9025 17.03172,56.30171 23.40629,71.99999 l 3.78997,9.33334 5.98046,0.72784 c 7.13726,0.86862 11.39095,3.01264 13.39084,6.74948 3.21204,6.00183 19.92294,48.49459 19.92294,50.66059 0,4.2804 -1.7108,6.8162 -5.7422,8.5113 l -4.0098,1.6859 14.3007,7.8325 c 19.5291,10.6959 34.11084,20.4183 37.38584,24.927 2.5645,3.5306 2.7564,5.9356 3.1287,39.1944 l 0.3965,35.4331 -3.6423,3.8017 c -10.95274,11.4323 -57.92564,19.2611 -155.81743,25.9698 -35.51956,2.4342 -237.03485,3.6992 -285.99998,1.7954 z m 227.33332,-43.3788 c 74.03292,-1.9438 145.95148,-8.1184 171.9409,-14.7621 11.6883,-2.9879 15.3548,-5.2244 15.5998,-9.5157 0.2377,-4.1648 -0.2156,-10.0851 -0.8185,-10.688 -0.2248,-0.2248 -4.4777,0.5349 -9.4508,1.6883 -20.8358,4.8321 -54.87278,8.676 -108.60474,12.2648 -30.1127,2.0113 -55.82184,2.3655 -173.99999,2.3975 -140.03602,0.038 -169.14557,-0.6678 -221.99999,-5.3823 -27.47416,-2.4507 -58.40744,-6.6299 -68.46807,-9.2504 -4.21412,-1.0976 -7.93276,-1.9957 -8.26364,-1.9957 -0.33089,0 -0.60162,3.231 -0.60162,7.18 0,9.1948 2.20805,10.7681 19.93492,14.2044 65.21906,12.6427 219.45411,18.1987 384.73173,13.8592 z m 10,-41.9066 c 44.90073,-1.5209 75.65371,-3.3394 103.99999,-6.1495 21.98682,-2.1796 51.92461,-7.2379 60.54481,-10.2295 l 5.2114,-1.8086 -3.8781,-2.7483 c -2.133,-1.5116 -12.8772,-8.2767 -23.87607,-15.0336 l -19.99796,-12.2853 -44.00204,1.4626 c -56.4139,1.8752 -320.71328,1.893 -387.04196,0.026 l -50.77695,-1.4291 -20.42488,12.8027 c -26.16126,16.3985 -26.28619,16.4933 -23.77966,18.0424 6.39405,3.9517 49.79604,10.3861 89.35477,13.247 67.0007,4.8453 230.00757,6.971 314.66665,4.1032 z m 128.4843,-77.6703 c -0.43029,-2.3834 -1.76529,-6.3615 -2.96666,-8.8404 l -2.18432,-4.5071 -241.99998,-0.055 -241.99999,-0.055 -2.95904,7.2289 c -1.62747,3.9759 -2.97747,7.9789 -3,8.8956 -0.0326,1.3275 50.41941,1.6667 247.92569,1.6667 h 247.96665 z m -396.6764,-55.33333 c 10.91223,-47.20874 16.42519,-91.72185 19.65088,-158.66666 l 0.91551,-19 h -17.52047 c -15.79554,0 -17.52092,0.22972 -17.52503,2.33333 -0.0259,13.27821 -5.10742,52.96142 -10.79389,84.29334 -6.20688,34.1993 -19.64941,84.00135 -27.0927,100.37332 -0.99003,2.17763 0.6318,2.33333 24.30407,2.33333 h 25.3649 z M 667.0668,892.375 v -94.68513 l -43,0.3518 -43,0.35181 -0.94483,21.33333 c -2.55392,57.66519 -12.64895,138.78693 -20.53307,164.99999 -0.66031,2.19541 2.49545,2.33333 53.38805,2.33333 h 54.08985 z m 143.37917,92.3518 c -8.2209,-21.16933 -24.66983,-140.12843 -24.70492,-178.66666 l -0.008,-8.33333 h -44 -44 v 94.66666 94.66666 h 56.80932 c 53.56041,0 56.75749,-0.13344 55.90319,-2.33333 z m 74.5144,-5.67218 c -4.1443,-10.19918 -13.96756,-43.76855 -19.11879,-65.33531 -7.72632,-32.34792 -17.41495,-94.02492 -17.43543,-110.9925 l -0.006,-5 h -18.02367 -18.02366 l 0.77081,15 c 2.76678,53.84135 10.29072,108.9023 20.77041,151.99999 l 5.43061,22.33333 h 24.44434 24.44434 z m -1.29624,-216.32781 c 0.28251,-0.91666 0.87077,-4.21666 1.30725,-7.33333 l 0.79358,-5.66667 H 683.60083 481.4367 l 0.88614,5 c 0.48738,2.75 1.19459,6.05 1.57157,7.33334 0.64884,2.20875 11.32521,2.33333 199.97075,2.33333 158.26541,0 199.39105,-0.34306 199.79897,-1.66667 z m 18.5839,-51.33333 c 0.84611,-5.64837 2.99673,-25.67271 4.26022,-39.66666 0.46348,-5.13333 1.5777,-15.48333 2.47604,-23 l 1.63334,-13.66667 h -10.9044 -10.90441 l -2.24657,13.66667 c -1.23562,7.51667 -2.88917,17.41667 -3.67456,22 l -1.42799,8.33333 h -27.67031 -27.67032 l -0.85,-9 c -0.46749,-4.95 -0.85426,-15.45 -0.85947,-23.33333 l -0.009,-14.33333 h -22 -22 l -0.15789,22.33333 c -0.0868,12.28333 -0.0868,22.78333 0,23.33333 0.0868,0.55 -16.02794,1 -35.81062,1 h -35.96851 l -0.36482,-23 -0.36482,-23 -25.66666,-0.36212 -25.66667,-0.36212 8.6e-4,23.69545 8.6e-4,23.69546 -36.66753,-0.37453 -36.66752,-0.37453 v -22.62547 -22.62547 h -22 -22 v 22.66667 22.66666 h -27.33381 c -15.03333,0 -27.78333,0.0265 -28.33333,0.0589 -0.55,0.0324 -2.45008,-9.86759 -4.22239,-21.99999 l -3.22239,-22.05893 h -9.74428 -9.74427 l 0.64546,3.66667 c 0.355,2.01667 2.14623,18.06667 3.98049,35.66667 1.83427,17.59999 3.68155,34.24999 4.10507,36.99999 l 0.77004,5 h 217.76559 217.7656 z M 633.73347,647.93424 c 0,-4.65259 0.39118,-14.85259 0.86928,-22.66667 l 0.86929,-14.20741 h 47.13071 47.13071 v 22.66666 22.66667 h 14 14 v -12.4655 c 0,-6.85602 0.38804,-17.05602 0.86231,-22.66666 l 0.86232,-10.20117 h 42.27136 42.27136 l 0.86632,12.20483 c 0.47648,6.71266 0.86632,16.91266 0.86632,22.66666 v 10.46184 h 7.14976 7.14976 l 0.86406,-7.35186 c 0.47524,-4.04351 1.22935,-13.79351 1.67581,-21.66666 0.62051,-10.94255 1.32399,-14.72114 2.98617,-16.03961 1.94351,-1.54161 2.16481,-6.9934 2.08378,-51.33333 -0.0519,-28.38094 -0.78114,-56.45497 -1.70431,-65.60853 C 855.02355,386.16806 814.82765,313.9301 744.38822,275.94974 730.4305,268.42385 708.29477,260.00678 691.235,255.73832 c -14.17049,-3.54555 -39.53546,-7.34481 -49.03604,-7.34481 h -6.10948 l 0.54876,8.61808 c 0.52407,8.23044 0.39611,8.67583 -2.84468,9.90189 -6.36155,2.40669 -13.57102,4.41355 -14.06842,3.91615 -0.27297,-0.27297 -1.38552,-4.76099 -2.47234,-9.97338 -4.23989,-20.33463 -14.43148,-39.0988 -29.19085,-53.74454 -14.10839,-13.99977 -13.45775,-14.55417 -12.683,10.80681 0.58117,19.02447 1.09506,22.96218 4.02575,30.84746 5.87507,15.8074 13.16495,24.18332 24.44974,28.09226 l 5.21236,1.80551 -6,3.14606 c -4.61819,2.42152 -8.17518,3.15807 -15.44496,3.19821 -8.41625,0.0465 -10.21794,-0.42794 -16.54189,-4.35575 -8.08174,-5.01958 -9.29256,-4.42984 -9.32606,4.54227 -0.0412,11.04527 5.89469,20.90364 13.82363,22.95823 3.87192,1.00332 3.81503,1.06378 -3.10303,3.29806 -3.87598,1.25181 -9.26054,2.27601 -11.96567,2.27601 -10.60528,0 -25.77442,-11.35538 -29.7107,-22.24097 -0.88019,-2.43413 -1.99833,-4.42569 -2.48474,-4.42569 -0.48642,0 -3.40846,6.45 -6.49343,14.33333 -3.08496,7.88333 -9.76645,22.30924 -14.84775,32.05758 -5.0813,9.74834 -9.23873,18.78046 -9.23873,20.07138 0,2.93259 -15.47877,37.16897 -22.94398,50.74813 -3.06081,5.56759 -12.60462,21.87013 -21.20847,36.22784 -8.60384,14.35772 -17.87361,30.61222 -20.59949,36.12112 l -4.95613,10.01617 10.19291,19.36927 c 13.07383,24.84379 17.1774,29.05516 28.31146,29.05516 6.90879,0 13.28124,-3.19393 21.66958,-10.86098 4.14377,-3.78746 9.46485,-7.69316 11.82463,-8.67932 4.68785,-1.95908 16.37616,-2.45618 16.37616,-0.69647 0,0.6031 -1.72632,4.3531 -3.83626,8.33333 -4.72576,8.91473 -8.80112,19.7105 -7.81348,20.69815 1.06474,1.06473 8.42656,-2.98876 11.76082,-6.47562 1.5703,-1.64217 6.70884,-8.19916 11.41899,-14.57111 4.71015,-6.37194 11.62939,-14.34149 15.37609,-17.7101 13.69927,-12.31681 35.81396,-25.32484 58.06586,-34.15477 34.90285,-13.85003 57.65915,-31.68691 67.04303,-52.54977 4.81411,-10.70304 6.38773,-17.67846 7.47382,-33.12933 0.8571,-12.19326 1.14564,-13.16753 4.81374,-16.25403 8.25113,-6.94287 18.9385,-2.50454 21.08311,8.75554 1.58566,8.32542 0.604,29.27141 -1.96657,41.96115 -2.44099,12.05008 -11.21366,31.05495 -19.06388,41.29945 -9.6343,12.5727 -25.46877,23.39668 -44.92982,30.7127 l -7.92539,2.9794 -3.76737,14.50422 c -8.36447,32.20289 -21.7521,66.43078 -39.44081,100.83756 -0.28276,0.55 4.03589,1 9.597,1 h 10.11111 l 0.008,11.66666 c 0.004,6.41667 0.39332,16.61667 0.86429,22.66667 l 0.85629,11 h 13.80238 13.80238 z M 455.58216,503.18546 c -6.11982,-3.73174 -10.33149,-13.29821 -9.52944,-21.64533 1.08784,-11.32141 8.52992,-18.55538 20.07403,-19.5127 8.58902,-0.71227 14.53592,1.87415 18.21347,7.9214 7.21433,11.86301 2.83196,27.43334 -9.54053,33.89703 -5.09431,2.6614 -14.28814,2.34546 -19.21753,-0.6604 z m 74.81798,-116.87453 c -7.3298,-3.70494 -9.33716,-8.00374 -9.3006,-19.91743 0.0366,-11.93649 2.69337,-19.48261 10.19277,-28.95139 11.00419,-13.89391 33.53412,-13.92735 39.32895,-0.0584 7.2476,17.34595 -15.47223,51.18688 -34.22112,50.97198 -1.1,-0.0126 -3.8,-0.93276 -6,-2.04478 z m 397.55694,162.74923 c 0.23765,-0.73333 -2.19083,-2.4119 -5.39661,-3.73015 -7.88684,-3.24315 -15.63812,-10.12591 -22.96146,-20.38864 -6.78989,-9.51518 -9.2391,-10.83733 -7.80722,-4.21454 2.32181,10.73891 11.03911,23.37551 19.10305,27.69178 5.08115,2.71971 16.25266,3.13977 17.06224,0.64155 z m 8.40442,-47.28125 c 2.42552,-1.53395 2.24891,-1.67366 -5.96139,-4.71578 -8.36207,-3.09837 -19.58077,-14.19174 -25.99999,-25.70954 -10.25723,-18.40421 -16.20965,-28.1409 -18.22735,-29.81544 -1.89159,-1.56988 -2.01579,-1.26008 -1.15519,2.88151 3.65242,17.57707 14.72791,40.80817 23.04297,48.3332 8.48142,7.67558 23.07617,12.3303 28.30095,9.02605 z m -10.14021,-73.33992 c 1.60128,-1.60128 1.89811,-1.37064 -6.90583,-5.36572 -9.74072,-4.42018 -22.89254,-18.70602 -33.19999,-36.06265 -12.06721,-20.31989 -25.04531,-35.7316 -27.78351,-32.9934 -0.35838,0.35838 5.80477,13.4105 13.6959,29.00471 18.75906,37.07109 26.69899,46.27606 41.70559,48.35037 3.90804,0.54019 10.58201,-1.02748 12.48784,-2.93331 z m -23.93022,-84.8548 c 2.88655,-1.10768 2.66154,-3.19068 -0.34466,-3.19068 -6.58207,0 -19.55481,-8.69992 -32.7313,-21.95062 -15.3715,-15.45807 -24.88732,-22.82848 -37.79282,-29.27215 -9.68555,-4.83595 -25.49858,-10.12474 -30.16261,-10.0881 -2.36408,0.0186 -2.05096,0.50942 1.80711,2.83286 21.61478,13.01701 33.77333,22.32742 59.16527,45.30578 6.98597,6.32194 15.28169,12.77147 18.43492,14.33228 5.60558,2.7747 16.91699,3.83691 21.62409,2.03063 z m -64.55762,-81.87978 c 0,-2.52439 -12.62083,-13.50308 -20.66666,-17.97764 -14.95517,-8.31709 -25.48572,-10.67528 -47.33333,-10.59975 -16.85018,0.0582 -20.31478,0.45465 -26.97466,3.08631 -4.20273,1.66072 -7.93867,3.5006 -8.30209,4.08863 -0.36343,0.58803 9.37517,1.00805 21.64132,0.93336 19.3255,-0.11766 23.99069,0.2868 34.95389,3.0304 16.9577,4.24374 35.22068,11.15102 40.43101,15.2915 4.63341,3.682 6.25052,4.23752 6.25052,2.14719 z"
       id="path1" />
  </g>
</svg>
